<svg id="Layer_1" enable-background="new 0 0 512 512" height="512" viewBox="0 0 512 512" width="512" xmlns="http://www.w3.org/2000/svg"><g><ellipse cx="334.489" cy="177.511" fill="#00a0ff" rx="177.511" ry="177.511" transform="matrix(.707 -.707 .707 .707 -27.55 288.511)"/><path d="m334.488 355.022c97.88 0 177.512-79.631 177.512-177.512 0-48.94-19.908-93.318-52.051-125.46l-250.921 250.922c32.143 32.143 76.52 52.05 125.46 52.05z" fill="#3c73cd"/><ellipse cx="177.511" cy="219.576" fill="#ff6e5f" rx="177.511" ry="177.511" transform="matrix(.707 -.707 .707 .707 -103.272 189.832)"/><ellipse cx="292.424" cy="334.489" fill="#6ed79b" rx="177.511" ry="177.511" transform="matrix(.707 -.707 .707 .707 -150.871 304.745)"/><path d="m161.03 215.255c-28.641 31.533-46.117 73.381-46.117 119.234 0 18.875 2.972 37.066 8.455 54.144 17.077 5.482 35.269 8.455 54.144 8.455 45.853 0 87.701-17.476 119.234-46.117z" fill="#fff0aa"/><path d="m177.511 397.087c45.853 0 87.701-17.476 119.234-46.117l-67.858-67.858-105.52 105.52c17.078 5.483 35.269 8.455 54.144 8.455z" fill="#ffe146"/><path d="m346.58 165.432h-.012l-49.823 185.538.003.006c12.167 2.645 24.792 4.046 37.741 4.046 52.027 0 98.898-22.499 131.395-58.278-13.495-62.067-59.548-112.123-119.304-131.312z" fill="#32cdff"/><path d="m346.571 165.428c-19.188-59.76-69.245-105.816-131.316-119.311-35.778 32.497-58.277 79.367-58.277 131.394 0 12.946 1.401 25.57 4.045 37.736l.008.008 185.538-49.823z" fill="#c3c3f0"/><path d="m355.022 219.576c0-18.875-2.972-37.066-8.455-54.144-17.078-5.482-35.269-8.455-54.144-8.455-52.027 0-98.897 22.499-131.394 58.277 14.705 67.64 68.076 121.01 135.715 135.715 35.78-32.496 58.278-79.366 58.278-131.393z" fill="#fafaf5"/><path d="m296.745 350.97c35.779-32.497 58.277-79.367 58.277-131.394 0-18.875-2.972-37.066-8.455-54.144l-137.53 137.531c23.636 23.636 53.888 40.655 87.708 48.007z" fill="#ebe6e6"/></g></svg>