<?xml version="1.0" encoding="iso-8859-1"?>
<!-- Generator: Adobe Illustrator 19.0.0, SVG Export Plug-In . SVG Version: 6.00 Build 0)  -->
<svg version="1.1" id="Capa_1" xmlns="http://www.w3.org/2000/svg" xmlns:xlink="http://www.w3.org/1999/xlink" x="0px" y="0px"
	 viewBox="0 0 512 512" style="enable-background:new 0 0 512 512;" xml:space="preserve">
<path style="fill:#FF3997;" d="M501.799,275.95c-2.098-4.801-4.499-9.3-7.2-13.801L391,67.45L288.701,261.849
	C277,280.749,271,302.35,271,324.55c0,66.299,53.699,120,120,120s121-53.701,121-120C512,307.75,508.4,291.251,501.799,275.95z"/>
<path style="fill:#F50B75;" d="M512,324.55c0,66.299-54.699,120-121,120V67.45l103.599,194.7c2.701,4.501,5.101,9,7.2,13.801
	C508.4,291.251,512,307.75,512,324.55z"/>
<path style="fill:#FFD400;" d="M365.799,275.95c-2.098-4.801-4.499-9.3-7.2-13.801L256,67.45L153.701,261.849
	C142,280.749,136,302.35,136,324.55c0,66.299,53.699,120,120,120s120-53.701,120-120C376,307.75,372.4,291.251,365.799,275.95z"/>
<path style="fill:#FDBF00;" d="M376,324.55c0,66.299-53.699,120-120,120V67.45l102.599,194.7c2.701,4.501,5.101,9,7.2,13.801
	C372.4,291.251,376,307.75,376,324.55z"/>
<path style="fill:#25D9F8;" d="M230.799,275.95c-2.098-4.801-4.499-9.3-7.2-13.801L121,67.45L17.701,261.849
	C6,280.749,0,302.35,0,324.55c0,66.299,54.699,120,121,120s120-53.701,120-120C241,307.75,237.4,291.251,230.799,275.95z"/>
<path style="fill:#00C0F1;" d="M241,324.55c0,66.299-53.699,120-120,120V67.45l102.599,194.7c2.701,4.501,5.101,9,7.2,13.801
	C237.4,291.251,241,307.75,241,324.55z"/>
<g>
</g>
<g>
</g>
<g>
</g>
<g>
</g>
<g>
</g>
<g>
</g>
<g>
</g>
<g>
</g>
<g>
</g>
<g>
</g>
<g>
</g>
<g>
</g>
<g>
</g>
<g>
</g>
<g>
</g>
</svg>
